<svg xmlns="http://www.w3.org/2000/svg" viewBox="0 0 100 100">
  <!-- Circular background -->
  <circle cx="50" cy="50" r="45" fill="#FEC98F" />
  
  <!-- PDF document base - 15% smaller -->
  <rect x="32.5" y="28" width="34" height="42.5" rx="2.5" ry="2.5" fill="white" stroke="#d0d0d0" stroke-width="1" />
  
  <!-- PDF document fold -->
  <path d="M56.9 28 L66.5 38 L56.9 38 Z" fill="#e0e0e0" />
  <path d="M56.9 28 L56.9 38 L66.5 38 Z" fill="none" stroke="#c0c0c0" stroke-width="1" />
  
  <!-- PDF text lines -->
  <rect x="36.5" y="34.5" width="17" height="2.1" rx="1" ry="1" fill="#4ca8d6" />
  <rect x="36.5" y="40.5" width="21.25" height="1.3" rx="0.8" ry="0.8" fill="#7f8c8d" />
  <rect x="36.5" y="45.6" width="21.25" height="1.3" rx="0.8" ry="0.8" fill="#7f8c8d" />
  <rect x="36.5" y="50.7" width="21.25" height="1.3" rx="0.8" ry="0.8" fill="#7f8c8d" />
  
  <!-- Internet globe representation - 15% smaller -->
  <circle cx="57.5" cy="62.25" r="8.5" fill="none" stroke="#212121" stroke-width="1.3" />
  
  <!-- Latitude lines -->
  <ellipse cx="57.5" cy="62.25" rx="8.5" ry="3.4" fill="none" stroke="#212121" stroke-width="0.7" />
  <ellipse cx="57.5" cy="62.25" rx="8.5" ry="5.95" fill="none" stroke="#212121" stroke-width="0.7" />
  
  <!-- Longitude lines -->
  <path d="M57.5 53.75 C57.5 53.75, 52.4 58, 52.4 62.25 C52.4 66.5, 57.5 70.75, 57.5 70.75" fill="none" stroke="#212121" stroke-width="0.7" />
  <path d="M57.5 53.75 C57.5 53.75, 62.6 58, 62.6 62.25 C62.6 66.5, 57.5 70.75, 57.5 70.75" fill="none" stroke="#212121" stroke-width="0.7" />
  <path d="M49 62.25 L66 62.25" fill="none" stroke="#212121" stroke-width="0.7" />
</svg>